<svg xmlns="http://www.w3.org/2000/svg" viewBox="0 0 223.96 287.65" width="32" height="32">
  <path d="M42.5,220.14L1.09,89.14c-3.89-12.35,2.95-25.55,15.33-29.46,7.71-2.44,15.77-.69,21.69,4.04v127.86c0,9.94,1.5,19.5,4.39,28.56Z" fill="#FCCD63"/>
  <path d="M148.76,50.43l-24.32,45.61c-14.29,1.57-27.68,6.27-39.4,13.29v-39.15l22.32-41.85c6.08-11.44,20.31-15.77,31.75-9.65,11.44,6.08,15.77,20.31,9.65,31.75Z" fill="#FF5252"/>
  <path d="M221.07,237.16c-17.05,31.16-49.9,50.5-85.67,50.5-29.56,0-56.11-13.07-73.94-33.76-6.46-7.43-11.79-15.83-15.67-24.95-.63-1.44-1.19-2.88-1.76-4.36-.03-.06-.03-.13-.06-.19-.53-1.41-1.03-2.85-1.47-4.26-2.88-9.06-4.39-18.62-4.39-28.56V23.48C38.11,10.5,48.61,0,61.55,0s23.48,10.5,23.48,23.48v85.85c11.72-7.02,25.11-11.72,39.4-13.29,3.6-.41,7.27-.63,10.97-.63,35.76,0,68.61,19.37,85.67,50.53,6.24,11.38,2.04,25.64-9.37,31.88-11.35,6.21-25.64,2.01-31.81-9.34-8.81-16.11-25.83-26.08-44.48-26.08-27.71,0-50.25,21.91-50.37,48.96v.28c.03,4.39.6,8.68,1.72,12.76.22.75.44,1.5.69,2.23.19.6.41,1.19.63,1.79.34.94.72,1.85,1.13,2.73,7.77,17.37,25.51,29.59,46.2,29.59,18.65,0,35.67-10,44.48-26.08,6.21-11.41,20.47-15.61,31.81-9.37,11.41,6.24,15.61,20.47,9.37,31.88Z" fill="#05162B"/>
</svg>
